<?xml version="1.0" encoding="UTF-8"?> <svg xmlns="http://www.w3.org/2000/svg" width="194" height="121" viewBox="0 0 194 121" fill="none"> <g clip-path="url(#clip0)"> <path fill-rule="evenodd" clip-rule="evenodd" d="M174.001 74.8397V82.5797H183.811C184.688 82.6668 185.566 82.4125 186.261 81.8697C186.775 81.0306 187.013 80.0512 186.941 79.0697C186.941 76.6497 186.321 74.8397 183.641 74.8397H174.001ZM174.001 63.7797V69.4297H183.371C185.481 69.4297 186.281 68.4997 186.281 66.4297C186.342 65.6848 186.167 64.9393 185.781 64.2997C185.041 63.9077 184.205 63.7343 183.371 63.7997L174.001 63.7797ZM125.861 82.4597V74.1297C123.781 73.7683 121.671 73.6042 119.561 73.6397C118.261 73.6397 115.421 73.7097 114.301 74.4597C113.401 75.0697 113.301 77.2397 113.301 78.1897C113.301 79.1397 113.391 81.7597 114.301 82.4997C115.211 83.2397 118.301 83.3997 119.541 83.3997C121.683 83.4106 123.814 83.0936 125.861 82.4597ZM82.5707 63.9997V80.4397C82.5707 81.4397 83.3107 81.9297 84.1107 82.3097C85.6677 82.9716 87.3495 83.2889 89.0407 83.2397C90.9407 83.2397 93.6307 82.9797 94.9107 81.3697C96.3507 79.5597 96.5007 75.3697 96.5007 73.1497C96.5007 70.9297 96.3707 66.5597 94.9807 64.8697C93.7207 63.3397 90.8607 63.1197 89.0407 63.1197C86.853 63.1012 84.674 63.3976 82.5707 63.9997V63.9997ZM189.911 71.9997C192.141 73.3497 193.181 75.8697 193.181 79.1697C193.256 80.379 193.091 81.5912 192.694 82.7361C192.297 83.8811 191.678 84.9359 190.871 85.8397C190.004 86.636 188.987 87.2506 187.879 87.6474C186.772 88.0441 185.596 88.2149 184.421 88.1497H168.151V58.1497H183.931C186.191 58.1497 188.931 58.5097 190.511 60.3197C191.79 61.8784 192.449 63.8549 192.361 65.8697C192.463 67.6807 191.987 69.4772 191.001 70.9997C190.702 71.3968 190.332 71.7357 189.911 71.9997V71.9997ZM141.691 47.6797H146.941V48.8297C146.941 49.3997 147.011 50.5097 147.521 50.9097C148.348 51.2754 149.242 51.4642 150.146 51.4642C151.05 51.4642 151.944 51.2754 152.771 50.9097C153.301 50.5097 153.361 49.4197 153.361 48.8397V47.6797H158.501V48.8297C158.501 54.2497 155.371 56.8297 150.071 56.8297C144.771 56.8297 141.691 54.1797 141.691 48.8297V47.6797ZM156.271 69.4197C152.293 75.7396 147.983 81.8448 143.361 87.7097L143.021 88.1597H137.751V58.1597H143.601V78.4197C148.211 72.1097 152.441 65.4197 156.431 58.7597L156.761 58.1997H162.121V88.1997H156.271V69.4197ZM125.821 68.7997C125.731 67.2197 125.451 65.2397 124.571 64.3897C123.381 63.2397 120.371 63.1197 118.841 63.1197C116.288 63.0358 113.744 63.4502 111.351 64.3397L110.181 64.8397L108.421 59.1597L109.551 58.8497C112.641 57.9443 115.841 57.4665 119.061 57.4297C122.221 57.4297 126.211 57.8397 128.691 60.0197C131.171 62.1997 131.691 66.1497 131.691 69.3197V86.3197L131.021 86.6297C127.346 88.217 123.373 88.9979 119.371 88.9197C116.371 88.9197 112.461 88.5797 110.011 86.6497C107.561 84.7197 107.011 81.3897 107.011 78.4597C107.011 75.5297 107.621 72.0197 110.311 70.2297C112.801 68.5597 116.181 68.1697 119.111 68.1697C121.362 68.179 123.607 68.3899 125.821 68.7997V68.7997ZM82.5707 87.5497V98.6697H76.7207V59.9997L77.3907 59.6997C79.1906 58.9368 81.0733 58.3864 83.0007 58.0597C84.9764 57.6612 86.9853 57.4503 89.0007 57.4297C92.6807 57.4297 96.8107 58.1097 99.4507 60.9197C102.241 63.9197 102.691 69.1697 102.691 73.0397C102.691 76.9097 102.231 82.2597 99.4607 85.3097C96.8807 88.1997 92.7607 88.9197 89.0007 88.9197C86.78 88.969 84.5784 88.4999 82.5707 87.5497V87.5497Z" fill="white"></path> <path fill-rule="evenodd" clip-rule="evenodd" d="M90.6404 31.4784V14.3084C89.1404 14.3834 87.6507 14.5977 86.1904 14.9484C85.104 15.179 84.1054 15.713 83.3104 16.4884C82.6747 17.1625 82.2235 17.9891 82.0004 18.8884C81.7247 20.2033 81.6006 21.5453 81.6304 22.8884C81.568 24.5661 81.8016 26.2417 82.3204 27.8384C82.8671 28.9772 83.8246 29.8668 85.0004 30.3284C86.8029 31.0361 88.7147 31.4252 90.6504 31.4784H90.6404ZM96.7404 14.2784V31.4884C98.7441 31.4341 100.725 31.0454 102.6 30.3384C103.796 29.9084 104.782 29.0396 105.36 27.9084C105.895 26.298 106.132 24.6038 106.06 22.9084C106.136 21.1802 105.899 19.4525 105.36 17.8084C104.787 16.6811 103.808 15.8128 102.62 15.3784C100.736 14.6712 98.7428 14.2989 96.7304 14.2784H96.7404ZM187.5 18.9984H180.18C179.352 26.7091 177.727 34.3131 175.33 41.6884L175.07 42.4784H168.87L169.41 40.9584C172.458 32.4882 174.251 23.6176 174.73 14.6284L174.78 13.5384H193.22V42.4784H187.5V18.9984ZM159.79 18.9984H152.47C151.644 26.7102 150.015 34.3147 147.61 41.6884L147.36 42.4784H141.16L141.7 40.9984C144.741 32.5131 146.526 23.6295 147 14.6284V13.5384H165.44V42.4784H159.72L159.79 18.9984ZM123.72 42.5084C122.22 37.2284 120.61 31.9484 118.79 26.7684C117.441 22.8205 115.872 18.9512 114.09 15.1784L113.29 13.5384H119.72L120.02 14.2184C122.899 20.9222 125.357 27.7988 127.38 34.8084C130.126 28.1351 132.5 21.3146 134.49 14.3784L134.73 13.5384H140.88L140.44 14.9984C137.589 24.0976 134.25 33.0371 130.44 41.7784C129 45.2584 127.4 48.6784 125.63 51.9984L125.31 52.6084H118.69L119.6 50.9184C121.08 48.1884 122.42 45.3484 123.72 42.5084ZM96.7204 8.77844C100.64 8.97844 105.52 9.77844 108.36 12.3684C111.2 14.9584 112 19.0884 112 22.8684C112 26.6484 111.22 30.6884 108.34 33.3884C105.46 36.0884 100.65 36.7984 96.7304 36.9984V42.4784H90.6404V36.9984C86.7804 36.7684 82.0404 35.9984 79.2504 33.3384C76.4604 30.6784 75.6504 26.6284 75.6504 22.8784C75.6504 19.1284 76.4004 15.1184 79.2304 12.4384C82.0604 9.75844 86.7904 8.99844 90.6404 8.78844V3.39844H96.7304L96.7204 8.77844Z" fill="white"></path> <path fill-rule="evenodd" clip-rule="evenodd" d="M7.10062 90.4106C38.3306 83.8606 40.1706 83.9806 64.6506 90.9206C69.4206 76.3206 68.0806 39.1406 52.4606 38.6306L34.5906 35.1406C28.3406 36.3606 15.8506 37.6206 10.8606 40.2406C-0.409382 46.1706 0.670619 81.6506 7.10062 90.4106Z" fill="#6EB63C"></path> <path fill-rule="evenodd" clip-rule="evenodd" d="M44.3091 37.0016L34.5891 35.1016L24.7891 37.0116V38.3016C24.7891 40.8901 25.8173 43.3726 27.6477 45.2029C29.4781 47.0333 31.9605 48.0616 34.5491 48.0616C37.1376 48.0616 39.6201 47.0333 41.4504 45.2029C43.2808 43.3726 44.3091 40.8901 44.3091 38.3016V37.0016Z" fill="#434242"></path> <path fill-rule="evenodd" clip-rule="evenodd" d="M27.5195 38.5789C27.5195 47.3189 41.6595 47.3189 41.6595 38.5789V32.3789H27.5195V38.5789Z" fill="#FEFEFE"></path> <path fill-rule="evenodd" clip-rule="evenodd" d="M22.9991 19.899L23.9991 15.599C25.8791 16.249 27.8991 15.519 29.9491 14.809C31.6391 14.219 33.3491 13.759 35.0191 13.039C38.5291 11.499 41.8591 10.449 44.4291 13.179L46.0791 20.939V22.359C46.0791 25.879 43.5491 28.239 40.1691 29.429C40.0471 28.6663 39.6646 27.9695 39.0866 27.4571C38.5086 26.9448 37.7709 26.6486 36.9991 26.619H32.2691C31.4818 26.6411 30.7275 26.94 30.1386 27.463C29.5497 27.986 29.164 28.6998 29.0491 29.479C25.6091 28.299 23.0491 25.929 23.0491 22.359L22.9991 19.899ZM21.9091 24.469L22.0091 24.069C22.3205 27.0467 23.3955 29.8936 25.1299 32.334C26.8643 34.7744 29.1994 36.7257 31.9091 37.999C32.7499 38.3845 33.6641 38.5841 34.5891 38.5841C35.5141 38.5841 36.4283 38.3845 37.2691 37.999C40.1491 36.679 41.7591 33.819 44.2691 32.109C46.2091 30.789 47.2691 25.899 47.2691 22.359C48.0891 18.649 48.9891 16.819 48.8691 12.749C48.8591 11.482 48.4038 10.2588 47.583 9.29358C46.7622 8.32834 45.628 7.68247 44.3791 7.46898L44.2991 4.66898C41.0991 -0.211015 36.6591 -0.791015 31.8691 0.758985C30.3687 1.27012 28.9137 1.90566 27.5191 2.65898C25.7375 3.62856 24.0115 4.69689 22.3491 5.85898C21.2226 8.49696 20.7591 11.3706 20.9991 14.229C21.1891 16.999 21.9291 20.179 21.9291 24.469H21.9091Z" fill="#6EB63C"></path> <path fill-rule="evenodd" clip-rule="evenodd" d="M5.73945 97.6716L0.189453 92.8016C0.999453 91.9216 25.4694 78.5216 65.4594 88.0016L62.6395 94.8216C28.8295 87.3116 6.36945 97.0016 5.73945 97.6716Z" fill="#434242"></path> <path fill-rule="evenodd" clip-rule="evenodd" d="M67.4006 87.7403L63.4006 93.9503C62.4006 93.3203 46.2006 79.0303 49.5906 38.0703C51.9806 38.6603 54.7306 38.5003 56.7606 39.8503C54.4206 74.4003 66.6106 87.2203 67.4006 87.7403Z" fill="#434242"></path> <path fill-rule="evenodd" clip-rule="evenodd" d="M5.90977 104.419C4.15977 101.139 2.42977 97.5594 0.759766 93.6094L7.92977 91.8594C9.2631 94.7994 10.5964 97.526 11.9298 100.039L5.90977 104.419Z" fill="#5F5A4D"></path> <path fill-rule="evenodd" clip-rule="evenodd" d="M59.7302 100.621C61.7302 97.4914 63.7302 94.0514 65.7302 90.2414L58.7302 87.9414C57.2102 90.7814 55.7302 93.3914 54.1602 95.8014L59.7302 100.621Z" fill="#434242"></path> <path fill-rule="evenodd" clip-rule="evenodd" d="M3.16 98.9316L0 92.2616C33.05 76.6116 48.27 38.2616 48.49 37.8516C50.93 38.3616 54.69 38.7416 55.82 39.3716C54.88 40.9216 38.18 82.3716 3.16 98.9316" fill="#5F5A4D"></path> <path fill-rule="evenodd" clip-rule="evenodd" d="M45.5198 77.5389C45.1098 77.6989 44.0498 78.0289 44.9698 76.8089C45.5798 75.9889 45.5298 75.5189 45.3398 75.2489C43.8584 74.5862 42.3093 74.0866 40.7198 73.7589V73.7589C39.9802 74.6936 39.0387 75.4487 37.9659 75.9679C36.8931 76.487 35.7167 76.7567 34.5248 76.7567C33.333 76.7567 32.1566 76.487 31.0837 75.9679C30.0109 75.4487 29.0694 74.6936 28.3298 73.7589C26.8084 74.0549 25.3209 74.5038 23.8898 75.0989C23.6198 75.2989 23.2898 75.7789 24.0798 76.8389C24.8698 77.8989 23.9798 77.7389 23.5498 77.5789C24.8007 79.3295 26.4514 80.7561 28.3646 81.7404C30.2778 82.7248 32.3983 83.2382 34.5498 83.2382C36.7014 83.2382 38.8218 82.7248 40.735 81.7404C42.6482 80.7561 44.2989 79.3295 45.5498 77.5789L45.5198 77.5389ZM45.3798 57.8289C48.1316 60.3488 49.9162 63.7512 50.4249 67.4477C50.9335 71.1441 50.1343 74.9021 48.1655 78.0716C46.1966 81.2411 43.1819 83.6229 39.6428 84.8049C36.1037 85.9869 32.2628 85.8948 28.7844 84.5446C25.306 83.1944 22.4089 80.671 20.5941 77.4107C18.7794 74.1505 18.1611 70.3586 18.8463 66.6908C19.5315 63.023 21.4771 59.71 24.3464 57.3248C27.2158 54.9396 30.8285 53.6323 34.5598 53.6289C38.5493 53.6219 42.3976 55.1055 45.3498 57.7889L45.3798 57.8289ZM46.8998 68.7589C47.1498 68.7589 47.9598 68.7589 47.7798 67.1689C47.7663 67.0126 47.7663 66.8553 47.7798 66.6989C47.1004 63.7309 45.4405 61.0785 43.0681 59.1701C40.6956 57.2616 37.7492 56.2085 34.7046 56.1807C31.6599 56.153 28.6948 57.1523 26.288 59.0172C23.8812 60.8821 22.1732 63.5038 21.4398 66.4589C21.4527 66.622 21.4527 66.7858 21.4398 66.9489C21.2498 68.6689 22.2298 68.5689 22.3798 68.5389C24.0139 67.6232 25.7722 66.9496 27.5998 66.5389V66.5389C32.4159 65.4062 37.4365 65.4749 42.2198 66.7389C43.8572 67.1711 45.4235 67.838 46.8698 68.7189L46.8998 68.7589Z" fill="#434242"></path> <path fill-rule="evenodd" clip-rule="evenodd" d="M49.1905 73.8986C48.6605 73.0086 48.1905 72.0986 47.7005 71.1786C47.1905 70.1786 46.7005 69.1786 46.2805 68.0986C46.028 67.5072 46.0152 66.8408 46.2447 66.24C46.4741 65.6393 46.928 65.1511 47.5105 64.8786L49.5905 63.8786C49.4666 63.6901 49.3564 63.4929 49.2605 63.2886C48.7405 62.0586 47.4705 61.2886 48.3205 60.8686C50.3205 59.8686 52.9005 61.4086 54.7505 63.8686C54.7973 63.9179 54.8338 63.976 54.8579 64.0395C54.8819 64.103 54.893 64.1707 54.8905 64.2386C54.9857 64.3956 55.0693 64.5594 55.1405 64.7286C56.0579 66.9774 56.8425 69.278 57.4905 71.6186C57.5996 72.0088 57.6286 72.4171 57.5756 72.8187C57.5226 73.2204 57.3889 73.6072 57.1823 73.9557C56.9758 74.3043 56.7008 74.6074 56.374 74.8468C56.0471 75.0862 55.6751 75.2569 55.2805 75.3486L53.6005 75.7586C52.7825 75.9609 51.9215 75.8996 51.1403 75.5835C50.3592 75.2675 49.6978 74.7128 49.2505 73.9986H49.1905V73.8986ZM19.9105 63.1986C20.4405 61.9686 21.7105 61.1986 20.8605 60.7786C18.8605 59.8386 16.3005 61.3086 14.4505 63.7786C14.2115 64.039 14.0218 64.3405 13.8905 64.6686C12.9732 66.9174 12.1885 69.218 11.5405 71.5586C11.4314 71.9488 11.4025 72.3571 11.4554 72.7587C11.5084 73.1604 11.6422 73.5472 11.8487 73.8957C12.0552 74.2443 12.3302 74.5474 12.6571 74.7868C12.9839 75.0262 13.3559 75.1969 13.7505 75.2886L15.4305 75.6986C16.2142 75.8867 17.0365 75.8336 17.7895 75.5463C18.5425 75.259 19.1912 74.7509 19.6505 74.0886H19.8205C20.3405 73.2086 20.8205 72.3186 21.2905 71.4086C21.8005 70.4086 22.2905 69.4086 22.7105 68.3286C22.963 67.7372 22.9759 67.0708 22.7464 66.47C22.5169 65.8693 22.063 65.3811 21.4805 65.1086L19.4805 64.1786C19.6761 63.8775 19.8213 63.5465 19.9105 63.1986V63.1986Z" fill="#FEFEFE"></path> <path d="M13.5595 104.07L16.0795 109.48C16.3995 110.23 16.6995 110.96 16.9995 111.72C17.2295 111.06 17.4695 110.32 17.7895 109.42L19.7895 104.07H21.5195L18.8595 110.59C18.2523 112.281 17.4573 113.897 16.4895 115.41C16.1722 115.882 15.7477 116.273 15.2505 116.549C14.7534 116.825 14.1979 116.98 13.6295 117C13.3189 117.012 13.0086 116.974 12.7095 116.89L12.8795 115.55C13.0756 115.598 13.2776 115.619 13.4795 115.61C14.7995 115.61 15.5695 114.33 15.9695 113.42C16.0281 113.298 16.0535 113.162 16.043 113.027C16.0324 112.892 15.9864 112.762 15.9095 112.65L11.6895 104.1L13.5595 104.07Z" fill="white"></path> <path d="M24.3409 107.651V110.651C24.3409 111.801 24.7809 112.591 26.2309 112.591C26.9316 112.585 27.6132 112.362 28.1809 111.951V107.661H29.8209V116.771H28.1809V113.121C27.4352 113.571 26.5821 113.813 25.7109 113.821C25.3057 113.867 24.8953 113.821 24.5102 113.687C24.1252 113.552 23.7755 113.333 23.4871 113.044C23.1987 112.756 22.9792 112.406 22.8448 112.021C22.7104 111.636 22.6646 111.226 22.7109 110.821V107.641L24.3409 107.651Z" fill="white"></path> <path d="M34.0602 107.649V111.489C34.0602 112.939 34.0602 113.839 33.9602 115.139H34.0202C34.5602 114.029 34.8902 113.389 35.4902 112.339L38.3302 107.629H40.2702V116.739H38.6902V112.899C38.6902 111.419 38.6902 110.639 38.8002 109.169H38.7402C38.1602 110.339 37.7402 111.079 37.2402 111.999C36.3702 113.409 35.3702 115.159 34.3902 116.759H32.4902V107.649H34.0602Z" fill="white"></path> <path d="M43.0509 107.651H45.0509L46.7009 112.241C46.9309 112.921 47.3309 114.031 47.5309 114.751C47.7409 114.071 48.2509 112.621 48.6009 111.621L50.0709 107.621H52.1309L52.7709 116.731H51.2609L51.0609 112.381C51.0009 111.381 50.9209 110.241 50.8909 109.131H50.8309C50.5909 109.951 50.3409 110.691 49.8309 112.131L48.0809 116.731H46.8809L45.2609 112.231C44.9809 111.361 44.5809 110.041 44.3509 109.231H44.2809C44.2809 110.311 44.1809 111.511 44.1309 112.511L43.9009 116.821H42.3809L43.0509 107.651Z" fill="white"></path> <path d="M66.4695 107.648V116.758H64.8195V108.998H60.5795V116.788H58.9395V107.678L66.4695 107.648Z" fill="white"></path> <path d="M77.4105 112.129C77.4701 112.755 77.3961 113.387 77.1936 113.983C76.991 114.578 76.6645 115.124 76.2355 115.585C75.8064 116.045 75.2847 116.409 74.7046 116.653C74.1246 116.896 73.4995 117.014 72.8705 116.999C72.2673 117.005 71.6695 116.885 71.1152 116.647C70.5609 116.41 70.0623 116.059 69.6511 115.618C69.2399 115.176 68.9252 114.654 68.7271 114.084C68.529 113.515 68.4518 112.91 68.5005 112.309C68.5005 109.309 70.5005 107.469 73.0205 107.469C75.5405 107.469 77.4105 109.339 77.4105 112.129ZM70.1805 112.219C70.1805 114.219 71.3305 115.729 72.9505 115.729C74.5705 115.729 75.7205 114.239 75.7205 112.189C75.7205 110.639 74.9405 108.679 72.9905 108.679C71.0405 108.679 70.1805 110.489 70.1805 112.219V112.219Z" fill="white"></path> <path d="M83.3394 111.059V112.279H78.6895V111.059H83.3394Z" fill="white"></path> <path d="M91.0803 104.24C92.0698 104.058 93.0743 103.971 94.0803 103.98C95.3126 103.865 96.5457 104.191 97.5603 104.9C97.9055 105.159 98.1824 105.498 98.3671 105.889C98.5518 106.279 98.6387 106.708 98.6203 107.14C98.6019 107.772 98.384 108.382 97.9979 108.883C97.6117 109.384 97.0771 109.751 96.4703 109.93C97.2064 110.081 97.8682 110.48 98.3451 111.061C98.822 111.641 99.0851 112.368 99.0903 113.12C99.0977 113.6 99.0046 114.077 98.8169 114.52C98.6292 114.962 98.351 115.361 98.0003 115.69C97.1103 116.5 95.6803 116.88 93.6103 116.88C92.7609 116.886 91.9121 116.833 91.0703 116.72L91.0803 104.24ZM92.7103 109.44H94.2003C95.9303 109.44 96.9503 108.53 96.9503 107.31C96.9503 105.82 95.8203 105.24 94.1603 105.24C93.6746 105.23 93.1891 105.267 92.7103 105.35V109.44ZM92.7103 115.52C93.1673 115.584 93.6289 115.611 94.0903 115.6C95.7803 115.6 97.3503 114.97 97.3503 113.13C97.3503 111.29 95.8603 110.68 94.0703 110.68H92.7103V115.52Z" fill="white"></path> <path d="M105.001 111.471H105.791C107.181 111.471 108.131 110.831 108.131 109.981C108.131 109.131 107.391 108.671 106.361 108.671C105.58 108.682 104.817 108.903 104.151 109.311L103.741 108.311C104.645 107.763 105.684 107.476 106.741 107.481C108.131 107.481 109.831 108.101 109.831 109.871C109.779 110.39 109.554 110.878 109.191 111.253C108.828 111.629 108.349 111.871 107.831 111.941V111.941C108.459 111.924 109.07 112.153 109.533 112.578C109.996 113.004 110.275 113.593 110.311 114.221C110.311 116.221 108.311 116.931 106.381 116.931C105.336 116.941 104.304 116.691 103.381 116.201L103.811 115.091C104.555 115.483 105.38 115.695 106.221 115.711C107.601 115.711 108.461 115.051 108.461 114.141C108.461 112.921 107.181 112.581 105.811 112.581H105.001V111.471Z" fill="white"></path> <path d="M112.31 110.619C112.31 109.459 112.31 108.519 112.23 107.619H113.72L113.8 109.179C114.127 108.618 114.6 108.157 115.17 107.846C115.739 107.534 116.382 107.383 117.03 107.409C119.24 107.409 120.89 109.279 120.89 112.039C120.89 115.319 118.89 116.939 116.75 116.939C116.2 116.963 115.653 116.844 115.162 116.593C114.671 116.343 114.254 115.969 113.95 115.509V115.509V120.459H112.31V110.619ZM113.95 113.049C113.957 113.277 113.98 113.505 114.02 113.729C114.161 114.283 114.482 114.775 114.933 115.127C115.384 115.478 115.939 115.669 116.51 115.669C118.26 115.669 119.28 114.239 119.28 112.149C119.28 110.319 118.28 108.759 116.57 108.759C115.991 108.772 115.432 108.975 114.978 109.336C114.525 109.697 114.203 110.197 114.06 110.759C113.998 110.981 113.961 111.209 113.95 111.439V113.049Z" fill="white"></path> <path d="M131.271 112.131C131.324 112.755 131.246 113.383 131.041 113.974C130.835 114.566 130.508 115.107 130.08 115.564C129.652 116.02 129.132 116.382 128.555 116.624C127.978 116.867 127.357 116.985 126.731 116.971C126.127 116.979 125.529 116.86 124.974 116.623C124.419 116.386 123.919 116.035 123.508 115.594C123.096 115.152 122.782 114.629 122.584 114.059C122.387 113.488 122.31 112.883 122.361 112.281C122.361 109.281 124.361 107.441 126.881 107.441C129.401 107.441 131.271 109.341 131.271 112.131ZM124.041 112.221C124.041 114.221 125.191 115.731 126.811 115.731C128.431 115.731 129.571 114.241 129.571 112.191C129.571 110.641 128.801 108.681 126.841 108.681C124.881 108.681 124.001 110.491 124.001 112.221H124.041Z" fill="white"></path> <path d="M139.85 116.421C139.027 116.792 138.132 116.973 137.23 116.951C136.617 116.981 136.004 116.88 135.433 116.655C134.861 116.431 134.344 116.087 133.916 115.647C133.488 115.208 133.158 114.682 132.948 114.105C132.738 113.528 132.654 112.913 132.7 112.301C132.669 111.653 132.775 111.006 133.011 110.401C133.247 109.797 133.607 109.249 134.068 108.792C134.529 108.336 135.08 107.982 135.687 107.752C136.294 107.523 136.942 107.424 137.59 107.461C138.381 107.454 139.165 107.614 139.89 107.931L139.51 109.211C138.917 108.905 138.256 108.757 137.59 108.781C136.713 108.821 135.885 109.197 135.276 109.829C134.667 110.462 134.325 111.304 134.318 112.182C134.312 113.06 134.642 113.907 135.242 114.548C135.841 115.19 136.663 115.577 137.54 115.631C138.232 115.631 138.915 115.478 139.54 115.181L139.85 116.421Z" fill="white"></path> <path d="M148.631 107.648V116.758H147.001V108.998H143.871V111.368C143.871 113.928 143.631 115.648 142.441 116.418C141.925 116.818 141.282 117.017 140.631 116.978L140.461 115.678C140.789 115.628 141.101 115.502 141.371 115.308C142.211 114.678 142.311 113.398 142.311 111.368V107.698L148.631 107.648Z" fill="white"></path> <path d="M159.581 112.129C159.641 112.759 159.566 113.394 159.361 113.992C159.156 114.591 158.826 115.139 158.392 115.6C157.959 116.061 157.432 116.424 156.847 116.665C156.263 116.906 155.633 117.02 155.001 116.999C152.541 116.999 150.641 115.189 150.641 112.309C150.641 109.309 152.641 107.469 155.151 107.469C157.661 107.469 159.581 109.339 159.581 112.129ZM152.351 112.219C152.351 114.219 153.501 115.729 155.121 115.729C156.741 115.729 157.891 114.239 157.891 112.189C157.891 110.639 157.111 108.679 155.161 108.679C153.211 108.679 152.351 110.489 152.351 112.219V112.219Z" fill="white"></path> <path d="M161.76 107.651H163.76L165.41 112.241C165.64 112.921 166.03 114.031 166.24 114.751C166.45 114.071 166.96 112.621 167.31 111.621L168.78 107.621H170.78L171.42 116.731H170L169.8 112.381C169.74 111.381 169.66 110.241 169.63 109.131H169.57C169.32 109.951 169.08 110.691 168.57 112.131L166.82 116.731H165.62L164 112.231C163.71 111.361 163.32 110.041 163.09 109.231H163C163 110.311 162.9 111.511 162.85 112.511L162.62 116.821H161.1L161.76 107.651Z" fill="white"></path> <path d="M174.3 107.648L176.3 113.028C176.5 113.638 176.73 114.348 176.88 114.898C177.05 114.348 177.24 113.658 177.46 112.998L179.27 107.648H181.02L178.53 114.148C177.35 117.268 176.53 118.868 175.41 119.848C174.849 120.374 174.159 120.743 173.41 120.918L172.99 119.528C173.521 119.353 174.013 119.078 174.44 118.718C175.041 118.219 175.519 117.59 175.84 116.878C175.904 116.753 175.948 116.618 175.97 116.478C175.955 116.329 175.914 116.184 175.85 116.048L172.48 107.648H174.3Z" fill="white"></path> <path d="M182.24 115.799C182.232 115.649 182.254 115.498 182.307 115.356C182.359 115.214 182.439 115.085 182.543 114.975C182.647 114.866 182.772 114.779 182.911 114.719C183.05 114.66 183.199 114.629 183.35 114.629C183.66 114.629 183.958 114.753 184.177 114.972C184.397 115.191 184.52 115.489 184.52 115.799C184.52 116.11 184.397 116.407 184.177 116.627C183.958 116.846 183.66 116.969 183.35 116.969C183.199 116.97 183.05 116.939 182.911 116.88C182.772 116.82 182.647 116.733 182.543 116.623C182.439 116.514 182.359 116.384 182.307 116.243C182.254 116.101 182.232 115.95 182.24 115.799V115.799ZM182.72 113.109L182.45 104.109H184.26L184 113.109H182.72Z" fill="white"></path> </g> <defs> <clipPath id="clip0"> <rect width="193.22" height="120.92" fill="white"></rect> </clipPath> </defs> </svg> 